<svg width="715" height="101" viewBox="0 0 715 101" fill="none" xmlns="http://www.w3.org/2000/svg">
<g clip-path="url(#clip0_707_172)">
<path fill-rule="evenodd" clip-rule="evenodd" d="M80.26 0H69.64V10.41H80.26V0ZM146.14 88.27L157.08 52V87.3H152.79V98.25H174.15V87.3H169.85V26.79H174.15V15.84H155.47L145.5 50.61L136.8 15.84H116.63V26.79H121.03V87.3H116.63V98.25H137.02V87.3H132.73V52.32L142.39 88.27H146.14ZM0 15.88V26.83H4.4V87.34H0V98.29H23.84V87.34H19.85V61.59H32.28V87.34H28.66V98.29H52.12V87.34H47.83V26.83H52.12V15.88H28.66V26.83H32.28V48.93H19.85V26.83H23.84V15.88H0ZM181 26.83V15.88H220.17V36.85H208.26V26.83H200.85V50.11H213.41V62.66H200.85V87.34H209.87V78.01H221.03V98.29H181V87.34H185.4V26.83H181ZM227.85 15.88V26.83H232.26V87.34H227.85V98.29H267.88V78.01H256.72V87.34H247.71V62.66H260.26V50.11H247.71V26.83H255.11V36.85H267.02V15.88H227.85ZM318.98 26.83V98.83H307.17L291.51 54.51V87.35H295.91V98.29H274.77V87.35H279.17V26.83H274.77V15.88H291.94L307.07 58.91V26.83H302.67V15.88H323.38V26.83H318.98ZM88.69 0H99.21V10.41H88.69V0ZM69.62 15.88V26.82H74.37L62.14 87.34H58.81V98.29H79.2V87.34H74.59L76.09 79.4H89.4L90.79 87.34H86.29V98.29H109.79V87.34H106.04L94.66 26.82H99.46V15.83L69.63 15.88H69.62ZM78.35 67.92L83.29 41.42L87.48 67.92H78.36H78.35ZM499.53 26.83V98.83H486.72L472.06 54.51V87.34H476.46V98.29H455.32V87.34H459.72V26.83H455.32V15.88H472.49L487.62 58.91V26.83H483.22V15.88H503.93V26.83H499.53ZM583.77 88.26L594.72 51.99V87.3H590.43V98.24H611.78V87.3H607.49V26.78H611.78V15.83H593.11L583.13 50.6L574.44 15.83H554.27V26.78H558.66V87.3H554.27V98.24H574.65V87.3H570.36V52.32L580.02 88.26H583.77ZM369.44 87.06C366.03 86.15 365.45 83.54 365.28 78.38L365.25 69.51H353.52V81.55L353.55 98.36H364.39V95.14C369.71 100.08 375.45 100.61 380.77 99.54C385.87 98.58 391.08 93.53 392.81 88.16C396.72 75.6 392.81 65.5 380.56 52.51L377.96 49.5C370.37 41.01 369.07 35.75 369.83 30.6C370.38 27.81 371.78 26.2 373.41 25.77C374.6 25.45 376.33 25.55 377.42 26.52C379.815 28.7906 379.815 29.7578 379.81 36.9144C379.81 37.2275 379.81 37.5525 379.81 37.89H391.52V15.89H380.78V19.76C377.09 15.57 372.42 13.64 367.76 14.28C362.12 15.14 357.78 18.46 355.83 23.94C352.14 34.14 354.53 46.81 366.13 60.13L369.7 64.1C373.97 68.96 376.84 73.8 377.43 78.35C377.62 80.28 377.44 82.47 376.97 83.91C375.74 87.66 371.93 87.49 369.44 87.06ZM529.48 14.16C509.63 14.16 507.7 36.16 507.91 59.01C508.13 81.87 509.74 100 529.16 100C548.58 100 550.19 82.3 550.3 59.76C550.41 36.15 549.33 14.16 529.48 14.16ZM523.9 80.69V32.94C523.9 27.36 525.51 24.78 529.16 24.78C532.59 24.78 534.42 27.36 534.42 32.94V80.69C534.42 86.38 532.59 88.84 529.16 88.84C525.51 88.84 523.9 86.37 523.9 80.69ZM408.51 26.82V15.88L438.33 15.83V26.82H433.53L444.91 87.34H448.67V98.28H425.17V87.34H429.68L428.28 79.4H414.98L413.48 87.34H418.09V98.28H397.7V87.34H401.03L413.26 26.82H408.51ZM422.16 41.42L417.22 67.92H417.23H426.35L422.16 41.42ZM679.38 98.24H703.63V87.3H699.24V26.78L703.79 26.65V37.21H714.42V15.7H668.35V37.21H678.97V26.65L683.78 26.78V87.3H679.38V98.24ZM643.09 41.37L638.15 67.87H638.16H647.28L643.09 41.37ZM629.44 26.77V15.83L659.27 15.78V26.77H654.47L665.85 87.29H669.6V98.23H646.1V87.29H650.6L649.21 79.35H635.91L634.41 87.29H639.02V98.23H618.69V87.29H621.96L634.19 26.77H629.44Z" fill="#292008"/>
</g>
<defs>
<clipPath id="clip0_707_172">
<rect width="714.42" height="100.01" fill="white"/>
</clipPath>
</defs>
</svg>
